<svg width="82" height="82" viewBox="0 0 82 82" fill="none" xmlns="http://www.w3.org/2000/svg">
<path fill-rule="evenodd" clip-rule="evenodd" d="M17.6903 11.384C11.5258 12.246 6.22276 16.9207 4.4003 23.0992C3.88226 24.8555 3.72822 26.0082 3.72705 28.1395C3.72516 31.2314 4.43175 33.9653 5.87405 36.4463L6.56507 37.635L6.63787 48.6733C6.70965 59.5542 6.71503 59.7214 7.02181 60.401C7.47462 61.4041 8.2859 62.248 9.29402 62.7641C10.1504 63.2025 10.2426 63.2169 12.1778 63.2169H14.1767L14.4347 64.1932C15.1601 66.9389 17.3981 69.3392 20.2514 70.432C21.3091 70.8371 24.031 70.937 25.2783 70.6166C28.3704 69.8225 30.9159 67.2846 31.7673 64.1473L32.0198 63.2169L39.2395 63.2161C43.645 63.2156 46.6653 63.1567 46.988 63.0648C47.2787 62.982 47.7583 62.7463 48.0537 62.5409L48.5909 62.1674L48.9984 62.4647C49.6951 62.9729 50.1983 63.1155 51.6119 63.205L52.9791 63.2915L53.1731 64.0709C53.9353 67.1312 56.5451 69.7801 59.5956 70.5901C60.6161 70.861 62.7669 70.8975 63.8875 70.6629C66.8414 70.0446 69.745 67.2167 70.5154 64.2076L70.7638 63.2374L72.8801 63.1899C74.7416 63.148 75.0789 63.1007 75.6801 62.7973C76.5703 62.3482 77.4335 61.4523 77.8996 60.4942L78.2725 59.7275V51.2142C78.2725 41.5388 78.2969 41.7757 77.0328 39.1972C76.1084 37.3114 69.842 28.7678 68.3116 27.3067C66.9755 26.0311 65.5356 25.2414 64.1395 25.0188C63.0181 24.8401 50.6629 24.8944 50.2944 25.0797C50.0758 25.1896 50.0479 24.9836 50.0011 22.9156C49.9571 20.9745 49.9027 20.5261 49.6402 19.9406C49.1986 18.9555 48.396 18.1105 47.5136 17.7019L46.7503 17.3484L39.8032 17.3056L32.8561 17.2629L32.0137 16.357C29.4772 13.6298 25.7334 11.7414 22.0227 11.3175C20.3032 11.121 19.4804 11.1337 17.6903 11.384ZM23.3935 14.8009C28.2 16.1706 31.7717 19.8614 33.0801 24.8107C33.2976 25.634 33.3523 26.3328 33.3424 28.1629C33.3312 30.2195 33.287 30.6199 32.9412 31.7859C30.5261 39.9308 21.8478 43.9808 14.5107 40.3871C10.5686 38.4564 7.94112 34.9965 7.04132 30.5515C6.08998 25.8528 8.02193 20.5137 11.7809 17.4536C13.4742 16.075 16.1175 14.8478 18.0674 14.5351C18.968 14.3906 22.5875 14.5712 23.3935 14.8009ZM19.5234 15.9231C19.3632 15.9904 19.1011 16.1945 18.941 16.3766C18.6648 16.691 18.6476 16.951 18.6074 21.4256C18.5679 25.8137 18.5457 26.1641 18.2894 26.4445C17.9678 26.7964 17.7034 27.4529 17.7034 27.8998C17.7034 28.1001 17.0774 28.8679 15.976 30.0189C14.4679 31.5948 14.2394 31.8991 14.1764 32.4173C14.0526 33.4328 14.6116 34.1206 15.5654 34.1263C16.3595 34.1311 16.5737 33.9826 18.3586 32.1919C19.6979 30.8481 20.0517 30.5711 20.5197 30.4998C22.1385 30.2535 23.0167 28.3102 22.1901 26.8034C22.0153 26.4847 21.8187 26.2238 21.7534 26.2238C21.688 26.2238 21.6345 24.1302 21.6345 21.5716C21.6345 17.0147 21.628 16.9096 21.3123 16.4376C20.9157 15.8447 20.2008 15.6391 19.5234 15.9231ZM46.5213 20.9485C46.823 21.3414 46.8231 21.3466 46.8231 40.2533C46.8231 50.6548 46.7824 59.2737 46.7327 59.4065C46.4885 60.0584 46.188 60.0845 38.9192 60.0845H32.0198L31.7673 59.1541C30.9358 56.0899 28.4212 53.5525 25.4332 52.7623C23.3161 52.2024 20.9266 52.454 19.0496 53.4343C16.8176 54.6002 15.2331 56.5376 14.4727 59.0315L14.1445 60.1079L12.4443 60.059C10.9917 60.017 10.6969 59.9665 10.4182 59.7115C9.69573 59.0507 9.69544 59.0461 9.69544 49.7971V41.141L10.5485 41.7843C12.3946 43.1766 14.852 44.2256 17.2791 44.6574C19.2942 45.016 22.3832 44.8877 24.3281 44.3649C30.0535 42.8255 34.5556 38.1853 36.0679 32.265C36.9453 28.8302 36.6284 24.5595 35.2614 21.3924L34.9 20.5555H40.5598H46.2196L46.5213 20.9485ZM65.085 28.8072C65.5454 29.1204 66.2462 29.7246 66.6422 30.1497L67.362 30.9225L63.3862 30.9971L59.4102 31.0717L58.4247 31.569C57.7235 31.9228 57.2768 32.2768 56.8759 32.7965C55.8894 34.0751 55.8267 34.4655 55.8779 39.0057L55.9231 43.005L56.3105 43.7568C56.7817 44.6714 57.8189 45.6789 58.7366 46.1134C59.4039 46.4294 59.575 46.4367 67.3162 46.4802L75.2149 46.5247V52.6408C75.2149 59.3512 75.2089 59.4011 74.3461 59.8582C74.0415 60.0196 73.467 60.0845 72.344 60.0845H70.769L70.5269 59.139C69.7641 56.1592 67.085 53.4834 64.0824 52.7027C63.0676 52.4388 60.9988 52.4076 59.8978 52.6396C56.906 53.2701 54.0443 56.0459 53.2222 59.1149L52.9825 60.0099L52.1525 60.0548C51.2022 60.1062 50.4857 59.7608 50.1969 59.1116C50.0701 58.8265 50.0263 54.9285 50.0263 43.9526V29.1773L50.5256 28.6658L51.025 28.1541L57.6363 28.1959L64.2478 28.2375L65.085 28.8072ZM71.6736 36.8519C72.7087 38.2671 73.7666 39.8052 74.0248 40.2698C74.4881 41.1041 75.0693 42.6391 75.0693 43.0284C75.0693 43.1935 73.7505 43.2287 67.5688 43.2287H60.0684L59.5244 42.7184L58.9806 42.208L58.9326 39.1011C58.8802 35.7084 58.971 35.0808 59.5862 34.5851C59.9525 34.2898 60.144 34.2787 64.8791 34.2787H69.7919L71.6736 36.8519ZM24.4795 55.841C28.9411 57.0312 30.4347 62.5233 27.2072 65.8708C24.3249 68.8603 19.5788 67.974 17.7888 64.1119C17.3797 63.2293 17.3394 63.0086 17.3394 61.6507C17.3394 60.2937 17.3799 60.0715 17.7881 59.189C18.5352 57.5738 20.0133 56.2968 21.6613 55.8425C22.684 55.5606 23.4269 55.5601 24.4795 55.841ZM63.0139 55.7771C66.0624 56.4399 68.1989 59.5791 67.6558 62.5982C66.9097 66.7474 62.4367 68.9387 58.9665 66.8551C56.6773 65.4807 55.5011 62.591 56.2207 60.1089C56.6861 58.5033 57.8287 57.0752 59.236 56.3404C60.6086 55.6237 61.6164 55.4734 63.0139 55.7771Z" fill="#6FE0B0"/>
</svg>
