<svg width="82" height="85" viewBox="0 0 82 85" fill="none" xmlns="http://www.w3.org/2000/svg">
<g filter="url(#filter0_d_101_2232)">
<circle cx="17.5" cy="19.5" r="5.5" stroke="#6FE0B0" stroke-width="4"/>
<circle cx="17.5" cy="69.5" r="5.5" stroke="#6FE0B0" stroke-width="4"/>
<circle cx="69.5" cy="19.5" r="5.5" stroke="#6FE0B0" stroke-width="4"/>
<circle cx="69.5" cy="69.5" r="5.5" stroke="#6FE0B0" stroke-width="4"/>
<mask id="path-5-inside-1_101_2232" fill="white">
<path fill-rule="evenodd" clip-rule="evenodd" d="M58 56.9451C62.5 56.4476 66 52.6326 66 48C66 43.051 62.0054 39.035 57.0646 39.0002C55.5919 36.0367 52.5338 34 49 34C48.8312 34 48.6635 34.0046 48.4971 34.0138C46.4796 31.5629 43.4223 30 40 30C34.5411 30 30.011 33.9764 29.1481 39.1907C25.0659 40.0446 22 43.6642 22 48C22 52.6326 25.5 56.4476 30 56.9451V57H31H57H58V56.9451Z"/>
</mask>
<path d="M58 56.9451L57.5605 52.9693L54 53.3629V56.9451H58ZM57.0646 39.0002L53.4825 40.7803L54.577 42.9828L57.0365 43.0001L57.0646 39.0002ZM48.4971 34.0138L45.4088 36.5559L46.6955 38.1191L48.7171 38.0078L48.4971 34.0138ZM29.1481 39.1907L29.967 43.106L32.6473 42.5454L33.0944 39.8438L29.1481 39.1907ZM30 56.9451H34V53.3629L30.4395 52.9693L30 56.9451ZM30 57H26V61H30V57ZM58 57V61H62V57H58ZM58.4395 60.9209C64.9437 60.2019 70 54.6942 70 48H62C62 50.571 60.0562 52.6934 57.5605 52.9693L58.4395 60.9209ZM70 48C70 40.8513 64.2301 35.0505 57.0927 35.0003L57.0365 43.0001C59.7808 43.0194 62 45.2507 62 48H70ZM60.6467 37.2202C58.5243 32.9492 54.1103 30 49 30V38C50.9574 38 52.6595 39.1241 53.4825 40.7803L60.6467 37.2202ZM49 30C48.7578 30 48.5167 30.0067 48.2771 30.0199L48.7171 38.0078C48.8104 38.0026 48.9047 38 49 38V30ZM51.5854 31.4717C48.8407 28.1373 44.6683 26 40 26V34C42.1764 34 44.1185 34.9885 45.4088 36.5559L51.5854 31.4717ZM40 26C32.5521 26 26.3789 31.4242 25.2017 38.5377L33.0944 39.8438C33.643 36.5287 36.5301 34 40 34V26ZM28.3291 35.2755C22.4313 36.5091 18 41.7325 18 48H26C26 45.596 27.7006 43.5801 29.967 43.106L28.3291 35.2755ZM18 48C18 54.6942 23.0563 60.2019 29.5605 60.9209L30.4395 52.9693C27.9438 52.6934 26 50.571 26 48H18ZM34 57V56.9451H26V57H34ZM31 53H30V61H31V53ZM57 53H31V61H57V53ZM58 53H57V61H58V53ZM54 56.9451V57H62V56.9451H54Z" fill="#6FE0B0" mask="url(#path-5-inside-1_101_2232)"/>
<path d="M22 24L33.5 35.5" stroke="#6FE0B0" stroke-width="4"/>
<path d="M22 66.5L33.5 55" stroke="#6FE0B0" stroke-width="4"/>
<path d="M64 24L52 36" stroke="#6FE0B0" stroke-width="4"/>
<path d="M64.5 66.5L53 55" stroke="#6FE0B0" stroke-width="4"/>
</g>
<defs>
<filter id="filter0_d_101_2232" x="-4" y="0" width="90" height="90" filterUnits="userSpaceOnUse" color-interpolation-filters="sRGB">
<feFlood flood-opacity="0" result="BackgroundImageFix"/>
<feColorMatrix in="SourceAlpha" type="matrix" values="0 0 0 0 0 0 0 0 0 0 0 0 0 0 0 0 0 0 127 0" result="hardAlpha"/>
<feOffset dy="4"/>
<feGaussianBlur stdDeviation="2"/>
<feComposite in2="hardAlpha" operator="out"/>
<feColorMatrix type="matrix" values="0 0 0 0 0 0 0 0 0 0 0 0 0 0 0 0 0 0 0.25 0"/>
<feBlend mode="normal" in2="BackgroundImageFix" result="effect1_dropShadow_101_2232"/>
<feBlend mode="normal" in="SourceGraphic" in2="effect1_dropShadow_101_2232" result="shape"/>
</filter>
</defs>
</svg>
