<svg width="82" height="82" viewBox="0 0 82 82" fill="none" xmlns="http://www.w3.org/2000/svg">
<path fill-rule="evenodd" clip-rule="evenodd" d="M24 12C24 15.3137 26.6863 18 30 18C30.4029 18 30.7966 17.9603 31.1773 17.8845C31.4376 19.2494 31.9752 20.5158 32.7294 21.623C31.8618 21.8686 30.9462 22 30 22C24.4771 22 20 17.5228 20 12C20 6.47715 24.4771 2 30 2C33.4379 2 36.4707 3.73493 38.2705 6.37704C36.9412 6.75335 35.7244 7.39769 34.6824 8.24796C33.5827 6.87744 31.8938 6 30 6C26.6863 6 24 8.68629 24 12Z" fill="#6FE0B0"/>
<circle cx="10" cy="10" r="8" transform="matrix(-1 0 0 1 51 6)" stroke="#6FE0B0" stroke-width="4"/>
<path d="M11.7708 39.6881C6.89383 54.3189 15.0221 62.4472 19.6958 64.6824L25.1824 78.094H33.1074V69.5594C37.009 71.5102 43.2678 70.7786 45.9094 70.169V78.094H53.2249L56.273 67.1209C61.1499 65.6578 65.214 60.4151 66.6365 57.9766L75.1711 54.9285L77 45.7842L72.3783 45.0139C70.8514 44.7594 69.7777 43.3732 69.5452 41.8429C69.0591 38.6425 67.3673 34.323 62.9788 31.763M59.9307 36.64L66.6365 26.2764C64.521 24.4865 59.8515 22.7486 55.3202 26.8857M52.0056 31.1534C53.0743 29.3075 54.193 27.9148 55.3202 26.8857M55.3202 26.8857C48.932 24.2439 32.9855 21.033 20.3054 29.3241" stroke="#6FE0B0" stroke-width="4" stroke-linecap="round" stroke-linejoin="round"/>
<circle cx="2.43848" cy="2.43848" r="2.43848" transform="matrix(-1 0 0 1 64.8076 40.9075)" fill="#6FE0B0"/>
<circle cx="2.43848" cy="2.43848" r="2.43848" transform="matrix(-1 0 0 1 17.2573 31.1536)" fill="#6FE0B0"/>
<path d="M44.0815 38.4692H38.2902C36.1017 38.4692 34.3276 40.2433 34.3276 42.4318V42.4318C34.3276 44.6202 36.1017 46.3943 38.2902 46.3943H41.3383C43.5267 46.3943 45.3008 48.1684 45.3008 50.3568V50.3568C45.3008 52.5452 43.5267 54.3193 41.3383 54.3193H34.9373" stroke="#6FE0B0" stroke-width="4" stroke-linecap="round" stroke-linejoin="round"/>
<path d="M40.4238 38.4692V34.2019M40.4238 54.3193V58.5867" stroke="#6FE0B0" stroke-width="4" stroke-linecap="round" stroke-linejoin="round"/>
</svg>
