<svg width="88" height="88" viewBox="0 0 88 88" fill="none" xmlns="http://www.w3.org/2000/svg">
<path fill-rule="evenodd" clip-rule="evenodd" d="M14.8703 11.5306C14.4624 11.9308 12.8376 15.1921 8.26129 24.7963C4.9237 31.8005 2.13112 37.7509 2.05537 38.0193C1.77064 39.0291 2.62405 40.315 3.69789 40.4941C4.35629 40.604 5.27863 40.213 5.61688 39.6805C5.74043 39.4862 8.60304 33.5411 11.9784 26.4691C16.5495 16.8917 18.1154 13.4632 18.1154 13.032C18.1154 11.799 17.3058 11 16.0565 11C15.5452 11 15.2987 11.1102 14.8703 11.5306ZM73.4377 13.7622C72.7403 14.1994 72.4265 14.7247 72.4265 15.455C72.4265 16.2896 82.0847 40.433 82.6518 41.0161C83.2302 41.6107 84.3975 41.6843 85.1309 41.1726C85.8501 40.6706 86.1698 39.7633 85.9111 38.9577C85.5567 37.8537 76.2302 14.686 75.9858 14.3024C75.7135 13.8752 74.8693 13.4487 74.2976 13.4497C74.0983 13.45 73.7113 13.5906 73.4377 13.7622ZM14.4845 26.9563C11.2384 33.8502 8.58351 39.5839 8.58478 39.698C8.58605 39.812 9.19967 40.7565 9.94843 41.7967C10.697 42.837 11.3469 43.7881 11.3924 43.91C11.438 44.0321 11.3354 44.3366 11.1644 44.5869C10.6021 45.4093 9.03769 49.2631 8.87094 50.237C8.57715 51.951 9.23508 54.0691 10.4988 55.4786C11.296 56.368 12.7397 57.1384 14.0932 57.3972L15.0732 57.5846L15.2388 58.5514C15.606 60.6939 16.8564 62.4324 18.6747 63.3285C19.4499 63.7103 19.8936 63.8093 21.0925 63.8672L22.5612 63.9381L22.9783 64.8939C23.7975 66.7703 25.8698 68.2642 27.8846 68.4305L28.8843 68.5131L28.987 69.2179C29.2479 71.0068 30.7621 72.9764 32.532 73.8293C33.3276 74.2126 33.6371 74.2668 35.0314 74.2668C36.505 74.2668 36.7002 74.2277 37.6684 73.7377C38.6493 73.2412 39.749 72.2296 40.3549 71.2664L40.599 70.8785L43.3021 72.7582C46.3262 74.8611 46.8946 75.0848 48.9405 74.9787C49.8812 74.9299 50.3449 74.8066 51.1803 74.3839C52.4712 73.7305 53.7189 72.3943 54.1186 71.2369C54.272 70.7931 54.457 70.43 54.5301 70.43C54.603 70.43 54.9903 70.6619 55.391 70.9451C56.6292 71.8211 57.5759 72.1223 59.087 72.1213C60.1106 72.1207 60.6588 72.0312 61.3555 71.7512C63.0271 71.0793 64.671 69.1299 65.0317 67.3917C65.1358 66.8895 65.1498 66.883 66.3272 66.7914C68.9279 66.5893 70.9627 64.9876 71.8009 62.4832C72.131 61.4962 72.2045 59.9134 71.9608 59.0394C71.8226 58.5442 71.8467 58.4903 72.3181 58.2408C74.9306 56.8574 76.1999 53.6561 75.3061 50.704C75.1432 50.1654 74.8616 49.5108 74.6805 49.2494C74.1464 48.4783 74.1845 48.3748 75.0935 48.1291C76.2828 47.8076 77.4813 47.1703 78.3773 46.3829C79.2146 45.6469 80.2874 44.0704 80.4416 43.3492C80.5165 42.9978 79.4362 40.0438 75.5925 30.0914C72.8723 23.0485 70.6198 17.2402 70.587 17.1843C70.5542 17.1285 69.0412 17.4738 67.2247 17.9515C62.1657 19.2823 59.9936 19.7031 58.7668 19.5901C58.1978 19.5377 56.0897 19.1674 54.0821 18.7672C49.7813 17.9097 47.448 17.6317 45.297 17.7205C43.8598 17.7799 43.622 17.8387 42.491 18.4134C41.2628 19.0374 41.2467 19.0405 39.8885 18.9302C36.9715 18.6931 33.2577 17.9865 28.5354 16.7703C26.162 16.1591 24.7754 15.7603 20.6404 14.4997C20.4405 14.4388 19.1303 17.0898 14.4845 26.9563ZM27.6437 20.7624C30.0456 21.3921 32.9576 22.0798 34.1148 22.2906C35.272 22.5013 36.219 22.7173 36.219 22.7706C36.2191 22.8238 34.306 24.265 31.9679 25.9731C29.0968 28.0706 27.5786 29.2847 27.2911 29.7131C25.9724 31.6794 26.6658 34.1258 28.9992 35.7404C31.4043 37.4047 35.2549 37.856 38.0095 36.7964C38.4975 36.6086 40.1537 35.534 41.7814 34.349L44.6833 32.2363L45.3345 32.7538C46.4733 33.659 49.4055 36.3518 51.7115 38.6105C52.9392 39.8128 54.5113 41.2118 55.2052 41.7191C57.9528 43.7283 61.5507 45.7372 64.2481 46.7684C65.3277 47.181 66.3319 47.773 68.3532 49.1885C69.825 50.2192 71.1324 51.2247 71.2587 51.4227C72.1664 52.8469 71.1486 54.754 69.4801 54.7555C68.6945 54.7563 69.2412 55.1103 60.1192 48.6954C56.1014 45.8701 52.7345 43.5082 52.6371 43.4468C52.4663 43.3392 51.31 46.428 51.2514 47.1486C51.232 47.3865 53.1324 48.7999 59.3252 53.154C63.7796 56.286 67.5478 59.0113 67.6986 59.2105C68.749 60.5961 67.7283 62.5931 65.9697 62.5931C65.2749 62.5931 65.0483 62.4951 64.079 61.7761C62.2812 60.4423 49.529 51.4689 49.307 51.3812C49.189 51.3347 48.9209 51.5995 48.6723 52.008C48.4356 52.3969 47.9308 53.1387 47.5505 53.6559C47.1701 54.1733 46.859 54.6267 46.859 54.6634C46.859 54.7003 49.8782 56.8462 53.5685 59.4319C57.2588 62.0177 60.4744 64.3322 60.7147 64.5752C61.08 64.9447 61.1514 65.1559 61.1514 65.8652C61.1514 66.6325 61.0928 66.7734 60.5349 67.3472C59.9836 67.9139 59.8346 67.981 59.1268 67.981C58.3496 67.981 58.2059 67.8904 51.287 63.0342C47.4104 60.3135 44.1497 58.0317 44.0407 57.9634C43.918 57.8867 43.4955 58.1303 42.9297 58.6043C42.4276 59.0247 41.9283 59.4036 41.8203 59.4462C41.7123 59.4889 41.2939 59.2248 40.8904 58.8598C40.1405 58.1811 38.9218 57.6144 37.8245 57.4339L37.2099 57.333L37.1418 56.0037C36.9777 52.8049 34.6762 50.3339 31.6155 50.07L30.5115 49.9748L30.2562 49.0592C29.2681 45.5172 25.6793 43.5374 22.3917 44.7208L21.8245 44.9251L21.1864 44.0772C19.9482 42.4319 18.3025 41.6594 16.1504 41.7129L14.9001 41.7439L14.0443 40.5361C13.5736 39.8719 13.2254 39.2299 13.2701 39.1096C13.3151 38.9893 15.4062 34.5206 17.9172 29.1792C22.3072 19.8405 22.4978 19.4704 22.8796 19.5424C23.0979 19.5837 25.2418 20.1326 27.6437 20.7624ZM49.3205 22.1209C50.0192 22.2133 52.0559 22.5862 53.8464 22.9494C59.1411 24.0233 59.9633 24.001 65.559 22.6315C67.0729 22.261 68.0362 22.0964 68.1271 22.1929C68.2951 22.3711 75.932 42.0868 76.0397 42.6204C76.1367 43.1005 75.06 43.8979 73.9987 44.1319C71.1809 44.7531 67.3899 43.8865 62.8983 41.5942C59.292 39.7538 57.1686 38.209 53.8928 35.0427C49.0204 30.3332 47.3913 28.949 45.8581 28.2149C44.961 27.7855 44.1771 27.7108 43.6328 28.0027C43.442 28.1051 41.8799 29.2086 40.1611 30.4552C38.4426 31.7016 36.7834 32.8302 36.474 32.963C35.2369 33.4944 32.2038 33.0861 31.1536 32.2466L30.7726 31.9421L35.7589 28.3018C38.5013 26.2996 41.5669 24.0596 42.5713 23.3242C43.5757 22.5887 44.5048 21.9495 44.6358 21.9036C44.9675 21.7874 47.7925 21.9185 49.3205 22.1209ZM17.3363 46.0293C17.9577 46.3596 18.4318 47.1779 18.4324 47.9216C18.4329 48.2807 18.1178 49.2494 17.636 50.3706C16.6763 52.6044 16.0811 53.2867 15.0926 53.2867C13.8415 53.2867 12.8766 52.3584 12.8755 51.1533C12.8749 50.6095 14.2436 47.1575 14.6779 46.6071C15.2946 45.8258 16.4723 45.5698 17.3363 46.0293ZM25.6509 49.0566C26.4403 49.7693 26.6281 50.5804 26.2407 51.6025C25.5845 53.3329 23.1489 58.7752 22.9037 59.0586C21.6291 60.5323 19.2296 59.6249 19.2277 57.6686C19.2272 57.2643 19.7093 55.9655 20.7152 53.6601C22.6263 49.2808 22.6431 49.2489 23.2447 48.8719C24.0382 48.3743 24.9747 48.4463 25.6509 49.0566ZM32.1842 54.506C32.6953 54.8504 33.0392 55.422 33.1472 56.1066C33.2222 56.5809 32.9967 57.2261 31.7864 60.0014C30.2314 63.5675 29.8492 64.1226 28.8114 64.3226C27.6394 64.5487 26.3733 63.4359 26.3733 62.1799C26.3733 61.6711 28.9516 55.6119 29.4393 54.9745C30.0906 54.1233 31.3076 53.9155 32.1842 54.506ZM38.0698 61.8598C38.5968 62.2148 39.0763 63.0625 39.077 63.6405C39.0773 63.9022 38.5663 65.2828 37.9415 66.7085C36.7337 69.4639 36.3306 70.006 35.3479 70.1954C34.2598 70.4054 32.8842 69.2354 32.8842 68.1C32.8842 67.5684 34.9431 62.727 35.3875 62.214C36.0467 61.4527 37.2329 61.2961 38.0698 61.8598ZM46.5489 64.7319C48.4738 66.0879 50.1647 67.3793 50.3065 67.602C50.6448 68.1326 50.6367 69.3113 50.2911 69.8535C49.9032 70.4623 49.1009 70.9185 48.4167 70.9192C47.813 70.9198 47.5835 70.7786 43.7306 68.0366L42.2696 66.9968L42.6698 65.9039C42.9988 65.0051 43.0609 64.5851 43.0191 63.5384C42.9912 62.8385 42.9866 62.2659 43.0088 62.2662C43.031 62.2664 44.6242 63.376 46.5489 64.7319Z" fill="#6FE0B0"/>
</svg>
