<svg width="40" height="40" viewBox="0 0 40 40" fill="none" xmlns="http://www.w3.org/2000/svg">
<path fill-rule="evenodd" clip-rule="evenodd" d="M20 40C31.0457 40 40 31.0457 40 20C40 8.9543 31.0457 0 20 0C8.9543 0 0 8.9543 0 20C0 31.0457 8.9543 40 20 40ZM19.9995 30.4478C25.8472 30.4478 30.5877 25.6365 30.5877 19.7015C30.5877 13.7665 25.8472 8.95525 19.9995 8.95525C14.1518 8.95525 9.41127 13.7665 9.41127 19.7015C9.41127 25.6365 14.1518 30.4478 19.9995 30.4478Z" fill="#6FE0B0"/>
<path d="M17.0589 22.6866C16.353 22.6866 15.9804 22.0896 15.8824 21.7911C15.6887 21.0048 15.8537 20.5287 16.1765 20.2544C16.638 19.8623 17.422 19.8829 17.9412 20C17.9412 17.3135 18.5295 14.0299 20.5883 14.3284C22.2353 14.5672 21.6667 16.617 21.1765 17.612C21.7648 16.5174 23.2354 14.6269 24.4118 15.8209C25.5883 17.015 23.5295 19.9005 22.353 21.1941C24.7059 21.4329 25.6863 23.8806 25.8824 25.0747C21.6471 27.2239 20.0001 24.7762 19.7059 23.2836C18.2942 24.2388 17.353 23.2836 17.0589 22.6866Z" fill="white"/>
<path d="M15.8824 21.7911C15.9804 22.0896 16.353 22.6866 17.0589 22.6866C17.353 23.2836 18.2942 24.2388 19.7059 23.2836C20.0001 24.7762 21.6471 27.2239 25.8824 25.0747C25.6863 23.8806 24.7059 21.4329 22.353 21.1941C23.5295 19.9005 25.5883 17.015 24.4118 15.8209C23.2354 14.6269 21.7648 16.5174 21.1765 17.612C21.6667 16.617 22.2354 14.5672 20.5883 14.3284C18.5295 14.0299 17.9412 17.3135 17.9412 20C17.422 19.8829 16.638 19.8623 16.1765 20.2544M15.8824 21.7911C15.6887 21.0048 15.8537 20.5287 16.1765 20.2544M15.8824 21.7911C15.3922 21.9901 14.5883 22.5672 14.1177 23.2836M16.1765 20.2544C15.8824 20.0701 15.353 19.403 15.5883 18.209" stroke="white" stroke-width="0.82963" stroke-linecap="round"/>
</svg>
