<svg width="79" height="12" viewBox="0 0 79 12" fill="none" xmlns="http://www.w3.org/2000/svg">
<path fill-rule="evenodd" clip-rule="evenodd" d="M0 11.6209H2.96992V9.26093H5.04886C7.34519 9.26093 9.20674 7.39938 9.20674 5.10304V4.57612C9.20674 2.43874 7.47406 0.706055 5.33668 0.706055H0V11.6209ZM2.9707 6.60575V3.06581H5.06162C6.03915 3.06581 6.8316 3.85825 6.8316 4.83578C6.8316 5.81331 6.03915 6.60575 5.06162 6.60575H2.9707Z" fill="white"/>
<path d="M32.966 0.706055H29.9961V11.6209H38.0149V8.96593H32.966V0.706055Z" fill="white"/>
<path d="M45.7375 0.706055H42.7676V11.6209H50.7864V8.96593H45.7375V0.706055Z" fill="white"/>
<path d="M55.2402 11.6209H63.853V8.96593H58.2102V7.49095H62.962V5.13099H58.2102V3.06602H63.853V0.706055H55.2402V11.6209Z" fill="white"/>
<path d="M71.5753 11.6209H68.9023V0.706055H71.5753L76.6241 6.90096V0.706055H79.0001V11.6209H76.6241L71.5753 5.42598V11.6209Z" fill="white"/>
<path d="M24.3429 6C24.3429 8.50381 22.2786 10.5681 19.6892 10.5681C17.0998 10.5681 15.0354 8.50381 15.0354 6C15.0354 3.49619 17.0998 1.43192 19.6892 1.43192C22.2786 1.43192 24.3429 3.49619 24.3429 6Z" stroke="white" stroke-width="2.86385"/>
</svg>
