<svg width="88" height="88" viewBox="0 0 88 88" fill="none" xmlns="http://www.w3.org/2000/svg">
<path fill-rule="evenodd" clip-rule="evenodd" d="M18.9849 12.2169C12.3694 13.142 6.67833 18.1588 4.72251 24.7893C4.16657 26.6741 4.00125 27.9112 4 30.1984C3.99797 33.5166 4.75627 36.4505 6.3041 39.113L7.04568 40.3887L7.1238 52.2346C7.20083 63.9117 7.20661 64.0912 7.53584 64.8205C8.02178 65.897 8.89242 66.8026 9.97431 67.3565C10.8934 67.827 10.9923 67.8425 13.069 67.8425H15.2142L15.4911 68.8902C16.2696 71.8368 18.6713 74.4127 21.7334 75.5854C22.8686 76.0202 25.7896 76.1275 27.1282 75.7836C30.4465 74.9314 33.1783 72.2077 34.092 68.8409L34.363 67.8425L42.1109 67.8415C46.8388 67.8411 50.0801 67.7778 50.4263 67.6792C50.7384 67.5904 51.2531 67.3374 51.5701 67.117L52.1465 66.7162L52.5839 67.0352C53.3315 67.5806 53.8715 67.7337 55.3886 67.8297L56.8558 67.9225L57.0641 68.759C57.8821 72.0432 60.6827 74.8859 63.9565 75.7551C65.0517 76.0458 67.3599 76.0851 68.5624 75.8332C71.7324 75.1697 74.8486 72.1349 75.6753 68.9056L75.9419 67.8644L78.213 67.8135C80.2107 67.7685 80.5727 67.7178 81.2179 67.3922C82.1732 66.9102 83.0996 65.9488 83.5998 64.9206L84 64.0977V54.9615C84 44.5782 84.0262 44.8324 82.6696 42.0652C81.6776 40.0415 74.9526 30.8727 73.3103 29.3047C71.8764 27.9357 70.3312 27.0882 68.8329 26.8494C67.6294 26.6576 54.3701 26.7159 53.9747 26.9147C53.7401 27.0327 53.7101 26.8116 53.66 24.5923C53.6128 22.5091 53.5543 22.0279 53.2726 21.3996C52.7987 20.3424 51.9375 19.4356 50.9904 18.9971L50.1713 18.6177L42.7159 18.5718L35.2605 18.526L34.3564 17.5538C31.6343 14.6271 27.6166 12.6005 23.6344 12.1455C21.789 11.9347 20.906 11.9483 18.9849 12.2169ZM25.1055 15.8839C30.2637 17.3537 34.0967 21.3146 35.5008 26.6261C35.7342 27.5096 35.793 28.2595 35.7824 30.2236C35.7703 32.4306 35.7228 32.8603 35.3517 34.1116C32.76 42.8525 23.4467 47.1988 15.5727 43.3422C11.3421 41.2703 8.52242 37.5572 7.55678 32.7869C6.53582 27.7444 8.60914 22.0146 12.6431 18.7306C14.4603 17.2511 17.2971 15.9341 19.3896 15.5986C20.3562 15.4435 24.2405 15.6373 25.1055 15.8839ZM20.9521 17.0882C20.7803 17.1604 20.499 17.3793 20.3271 17.5748C20.0307 17.9123 20.0123 18.1913 19.9692 22.9932C19.9268 27.7025 19.9029 28.0785 19.6279 28.3794C19.2827 28.7571 18.999 29.4616 18.999 29.9412C18.999 30.1562 18.3273 30.9801 17.1452 32.2153C15.5267 33.9065 15.2816 34.2331 15.2139 34.7892C15.0811 35.8791 15.681 36.6172 16.7046 36.6233C17.5568 36.6284 17.7866 36.4691 19.7021 34.5473C21.1395 33.1052 21.5192 32.8079 22.0214 32.7314C23.7586 32.4671 24.7011 30.3816 23.8141 28.7646C23.6264 28.4225 23.4155 28.1425 23.3453 28.1425C23.2751 28.1425 23.2178 25.8958 23.2178 23.1499C23.2178 18.2596 23.2108 18.1468 22.872 17.6403C22.4464 17.004 21.6792 16.7834 20.9521 17.0882ZM49.9255 22.4813C50.2493 22.9029 50.2495 22.9085 50.2495 43.1986C50.2495 54.3612 50.2057 63.6108 50.1524 63.7532C49.8904 64.4528 49.5679 64.4808 41.7671 64.4808H34.363L34.092 63.4824C33.1997 60.194 30.501 57.4709 27.2944 56.6229C25.0224 56.022 22.4581 56.292 20.4437 57.3441C18.0483 58.5953 16.348 60.6744 15.5319 63.3508L15.1797 64.5059L13.3551 64.4534C11.7962 64.4085 11.4798 64.3542 11.1807 64.0806C10.4054 63.3715 10.4051 63.3665 10.4051 53.4407V44.1512L11.3206 44.8416C13.3017 46.3358 15.9389 47.4615 18.5437 47.925C20.7062 48.3098 24.0212 48.1721 26.1085 47.611C32.2528 45.959 37.0843 40.9792 38.7072 34.6258C39.6488 30.9396 39.3088 26.3565 37.8418 22.9577L37.4539 22.0595H43.5278H49.6018L49.9255 22.4813ZM69.8476 30.915C70.3416 31.2511 71.0937 31.8995 71.5187 32.3557L72.2912 33.1851L68.0244 33.2651L63.7575 33.3451L62.7 33.8788C61.9474 34.2586 61.4681 34.6384 61.0377 35.1961C59.9791 36.5684 59.9118 36.9873 59.9668 41.8597L60.0152 46.1516L60.431 46.9584C60.9367 47.94 62.0498 49.0212 63.0347 49.4875C63.7508 49.8266 63.9344 49.8344 72.242 49.8811L80.7187 49.9288V56.4925C80.7187 63.6939 80.7123 63.7475 79.7863 64.238C79.4594 64.4112 78.8429 64.4808 77.6377 64.4808H75.9475L75.6877 63.4662C74.869 60.2683 71.9939 57.3968 68.7716 56.5589C67.6825 56.2757 65.4623 56.2423 64.2808 56.4912C61.0701 57.1679 57.999 60.1468 57.1167 63.4403L56.8596 64.4008L55.9688 64.449C54.9489 64.5042 54.18 64.1334 53.8701 63.4368C53.734 63.1309 53.687 58.9476 53.687 47.1686V31.3121L54.2228 30.7632L54.7587 30.2141L61.8539 30.2589L68.9491 30.3036L69.8476 30.915ZM76.9183 39.5483C78.0291 41.0671 79.1644 42.7177 79.4415 43.2163C79.9387 44.1117 80.5624 45.7589 80.5624 46.1767C80.5624 46.3539 79.1471 46.3917 72.5131 46.3917H64.4639L63.8801 45.8441L63.2965 45.2963L63.245 41.9621C63.1887 38.3211 63.2862 37.6476 63.9464 37.1157C64.3395 36.7987 64.545 36.7869 69.6266 36.7869H74.8989L76.9183 39.5483ZM26.271 59.9268C31.059 61.2041 32.6618 67.0981 29.1982 70.6905C26.105 73.8988 21.0117 72.9476 19.0907 68.803C18.6516 67.8558 18.6084 67.6189 18.6084 66.1617C18.6084 64.7054 18.6518 64.4669 19.0899 63.5199C19.8917 61.7865 21.4779 60.416 23.2465 59.9284C24.3441 59.6259 25.1413 59.6254 26.271 59.9268ZM67.6249 59.8583C70.8965 60.5696 73.1893 63.9385 72.6065 67.1785C71.8057 71.6313 67.0055 73.9829 63.2814 71.7469C60.8246 70.2719 59.5624 67.1708 60.3346 64.5071C60.8341 62.784 62.0603 61.2513 63.5706 60.4628C65.0436 59.6936 66.1252 59.5324 67.6249 59.8583Z" fill="#6FE0B0"/>
</svg>
