<svg width="88" height="88" viewBox="0 0 88 88" fill="none" xmlns="http://www.w3.org/2000/svg">
<path d="M14.6796 21.987L24.9596 11.7071C25.3501 11.3166 25.9832 11.3166 26.3738 11.7071L39.6262 24.9596C40.0168 25.3501 40.0168 25.9832 39.6262 26.3738L33.5097 32.4903C33.2053 32.7947 33.1298 33.2597 33.3223 33.6447L36.9047 40.8094C39.1303 45.2605 42.7395 48.8697 47.1906 51.0953L54.3553 54.6777C54.7403 54.8702 55.2053 54.7947 55.5097 54.4903L61.6262 48.3738C62.0168 47.9832 62.6499 47.9832 63.0404 48.3738L76.2929 61.6262C76.6834 62.0168 76.6834 62.6499 76.2929 63.0404L66.013 73.3204C63.9016 75.4317 60.559 75.6693 58.1703 73.8777L35.6286 56.9714C33.885 55.6638 32.3362 54.115 31.0286 52.3714L14.1223 29.8297C12.3307 27.441 12.5683 24.0984 14.6796 21.987Z" stroke="#6FE0B0" stroke-width="4"/>
</svg>
